#!OML:ASF F:\VICON\USERDATA\INSTALL\rory3\rory3.ASF
:FULLY-SPECIFIED
:DEGREES
624
root -17.5438 17.6598 9.61156 -182.339 -3.20399 179.743
lowerback 12.493 0.653635 2.22376
upperback 0.326865 1.18113 1.81749
thorax -6.66497 0.479468 0.456291
lowerneck -21.7085 -1.4302 -12.0791
upperneck 35.2844 -1.16555 3.99829
head 16.4332 -2.37841 3.39032
rclavicle 5.96354e-016 9.54166e-015
rhumerus -36.5005 -21.8119 -69.9984
rradius 33.7148
rwrist 5.77477
rhand -16.1025 8.60065
rfingers 7.12502
rthumb 10.1013 -21.1369
lclavicle 5.96354e-016 9.54166e-015
lhumerus -30.9544 8.76156 82.2431
lradius 37.3278
lwrist 2.63109
lhand -20.778 25.4712
lfingers 7.12502
lthumb 5.58871 55.3775
rfemur -3.33462 -4.044 22.4954
rtibia 32.2372
rfoot -20.2156 2.58997
rtoes 6.76426
lfemur -8.86626 0.0221842 -16.5391
ltibia 36.5667
lfoot -21.5568 -5.85553
ltoes -20.0669
625
root -17.5941 17.6723 9.6213 -182.479 -3.34383 179.673
lowerback 12.6785 0.649907 2.05906
upperback 0.348276 1.15671 1.82736
thorax -6.7501 0.471334 0.562508
lowerneck -21.5666 -1.3673 -11.9706
upperneck 35.2161 -1.15711 4.06528
head 16.3602 -2.34627 3.4015
rclavicle -5.71506e-015 -4.21423e-014
rhumerus -36.4226 -22.0403 -69.902
rradius 33.8349
rwrist 5.4142
rhand -16.5625 8.35849
rfingers 7.12502
rthumb 9.65745 -21.4001
lclavicle -5.71506e-015 -4.21423e-014
lhumerus -31.0989 8.50553 82.4393
lradius 37.3488
lwrist 2.18285
lhand -21.0094 25.6016
lfingers 7.12502
lthumb 5.36531 55.5137
rfemur -3.06279 -4.07307 22.2258
rtibia 32.0051
rfoot -20.0903 2.55521
rtoes 7.01701
lfemur -8.83478 -0.31285 -16.1377
ltibia 36.6475
lfoot -21.0853 -4.99206
ltoes -20.6878
626
root -17.6459 17.6896 9.63066 -182.551 -3.4516 179.587
lowerback 12.7693 0.636458 1.90802
upperback 0.382312 1.1168 1.81626
thorax -6.76771 0.455937 0.642591
lowerneck -21.4916 -1.35324 -11.9917
upperneck 35.1359 -1.18379 4.2169
head 16.3038 -2.33037 3.46648
rclavicle 8.94531e-016 -1.35174e-014
rhumerus -36.3045 -22.2678 -69.8496
rradius 33.9073
rwrist 4.89213
rhand -16.9097 8.30966
rfingers 7.12502
rthumb 9.3225 -21.4642
lclavicle 8.94531e-016 -1.35174e-014
lhumerus -31.1534 8.18551 82.6526
lradius 37.3996
lwrist 1.63843
lhand -21.2106 25.5232
lfingers 7.12502
lthumb 5.17101 55.4401
rfemur -2.86017 -4.07004 21.9457
rtibia 31.7447
rfoot -20.0222 2.46694
rtoes 5.96484
lfemur -8.83991 -0.823639 -15.7242
ltibia 36.6212
lfoot -20.5313 -4.67687
ltoes -19.2117
627
root -17.7006 17.7095 9.63809 -182.515 -3.4929 179.409
lowerback 12.7679 0.639886 1.69246
upperback 0.398351 1.08804 1.74298
thorax -6.75242 0.44939 0.691859
lowerneck -21.5758 -1.35156 -11.9536
upperneck 35.1798 -1.25024 4.39365
head 16.3518 -2.32706 3.52797
rclavicle -1.26228e-014 7.95139e-015
rhumerus -36.2297 -22.8522 -69.74
rradius 34.0181
rwrist 4.77909
rhand -17.3698 8.73457
rfingers 7.12502
rthumb 8.87855 -21.0586
lclavicle -1.26228e-014 7.95139e-015
lhumerus -31.2875 7.73367 82.8132
lradius 37.6161
lwrist 1.14126
lhand -21.4884 25.8603
lfingers 7.12502
lthumb 4.9028 55.7836
rfemur -2.75333 -3.99648 21.5461
rtibia 31.4422
rfoot -19.9027 2.51052
rtoes 5.15381
lfemur -8.91304 -1.30686 -15.3888
ltibia 36.5186
lfoot -20.0476 -4.78269
ltoes -17.1953
628
root -17.757 17.727 9.64329 -182.531 -3.51236 179.449
lowerback 12.8011 0.639368 1.72467
upperback 0.391559 1.09232 1.72266
thorax -6.7773 0.45015 0.65113
lowerneck -21.643 -1.30475 -11.7779
upperneck 35.3216 -1.27845 4.42968
head 16.439 -2.32213 3.51085
rclavicle -2.88238e-015 2.3059e-014
rhumerus -36.1759 -23.3003 -69.6757
rradius 34.1859
rwrist 4.33374
rhand -17.9169 9.49766
rfingers 7.12502
rthumb 8.35056 -20.3173
lclavicle -2.88238e-015 2.3059e-014
lhumerus -31.4513 7.4876 82.9518
lradius 37.7324
lwrist 0.406636
lhand -21.4293 26.6762
lfingers 7.12502
lthumb 4.95983 56.5982
rfemur -2.57797 -4.01355 21.3408
rtibia 31.1162
rfoot -19.6439 2.69991
rtoes 5.35406
lfemur -8.92323 -1.68318 -14.7916
ltibia 36.3351
lfoot -19.6878 -4.81228
ltoes -17.4088
629
root -17.8111 17.7404 9.64678 -182.639 -3.48013 179.405
lowerback 12.8894 0.690071 1.61167
upperback 0.41036 1.14381 1.71589
thorax -6.80893 0.478222 0.697589
lowerneck -21.5373 -1.25125 -11.6299
upperneck 35.3204 -1.2631 4.37991
head 16.408 -2.30604 3.46464
rclavicle -2.03754e-015 0
rhumerus -36.0892 -23.354 -69.7029
rradius 34.2667
rwrist 3.34628
rhand -18.2948 9.80067
rfingers 7.12502
rthumb 7.98581 -20.0285
lclavicle -2.03754e-015 0
lhumerus -31.5223 7.37193 83.1145
lradius 37.6721
lwrist -0.445848
lhand -20.7272 26.7335
lfingers 7.12502
lthumb 5.63777 56.6385
rfemur -2.29733 -4.02279 21.0464
rtibia 30.7889
rfoot -19.2976 2.78087
rtoes 5.36561
lfemur -8.80658 -2.01922 -14.2511
ltibia 36.0783
lfoot -19.2393 -5.04174
ltoes -17.326
630
root -17.869 17.7535 9.64865 -182.713 -3.45066 179.24
lowerback 12.8779 0.742713 1.41416
upperback 0.504912 1.17622 1.65896
thorax -6.70456 0.499315 0.743169
lowerneck -21.5517 -1.27523 -11.5993
upperneck 35.2209 -1.30764 4.44589
head 16.3657 -2.29678 3.47991
rclavicle -1.46604e-014 1.27222e-014
rhumerus -35.9041 -23.6667 -69.7175
rradius 34.2563
rwrist 2.71359
rhand -18.5406 9.82402
rfingers 7.12502
rthumb 7.74859 -20.014
lclavicle -1.46604e-014 1.27222e-014
lhumerus -31.4801 6.97847 83.3066
lradius 37.8186
lwrist -0.836071
lhand -20.4763 26.9943
lfingers 7.12502
lthumb 5.88 56.8928
rfemur -2.05769 -4.00156 20.6158
rtibia 30.4822
rfoot -19.0344 2.86163
rtoes 5.1201
lfemur -8.68851 -2.36148 -13.8288
ltibia 35.7601
lfoot -18.7518 -5.5507
ltoes -16.1282
631
root -17.9277 17.7633 9.65444 -182.769 -3.45356 179.195
lowerback 12.7944 0.752031 1.35641
upperback 0.693135 1.16202 1.62408
thorax -6.45781 0.491139 0.742926
lowerneck -21.8169 -1.35268 -11.6569
upperneck 35.1185 -1.35351 4.56787
head 16.3849 -2.281 3.53892
rclavicle -2.88238e-015 3.97569e-015
rhumerus -35.5729 -24.127 -69.8007
rradius 34.3867
rwrist 2.40755
rhand -18.6182 9.81373
rfingers 7.12502
rthumb 7.67369 -20.027
lclavicle -2.88238e-015 3.97569e-015
lhumerus -31.3181 6.34794 83.6358
lradius 38.2604
lwrist -0.499662
lhand -21.1792 29.0533
lfingers 7.12502
lthumb 5.20131 58.9695
rfemur -1.88257 -3.93264 20.3413
rtibia 30.2484
rfoot -18.8665 2.93013
rtoes 5.12387
lfemur -8.58163 -2.70248 -13.232
ltibia 35.3409
lfoot -18.2944 -6.18209
ltoes -15.4091
632
root -17.9875 17.7702 9.66271 -182.782 -3.34307 179.157
lowerback 12.697 0.809755 1.32448
upperback 0.867987 1.21573 1.5622
thorax -6.21708 0.515467 0.687664
lowerneck -22.141 -1.45321 -11.7119
upperneck 35.0922 -1.43533 4.68055
head 16.4612 -2.28725 3.58789
rclavicle -4.42296e-015 2.38542e-015
rhumerus -35.2237 -24.5286 -69.9638
rradius 34.4966
rwrist 2.15884
rhand -18.6227 9.95463
rfingers 7.12502
rthumb 7.66932 -19.8863
lclavicle -4.42296e-015 2.38542e-015
lhumerus -31.0932 6.44012 83.6216
lradius 38.0797
lwrist -1.08151
lhand -21.1998 26.1189
lfingers 7.12502
lthumb 5.18144 56.0355
rfemur -1.80184 -3.7908 20.0818
rtibia 30.0742
rfoot -18.7733 2.97192
rtoes 4.69994
lfemur -8.48114 -2.9953 -12.6215
ltibia 34.8328
lfoot -18.1342 -6.45795
ltoes -16.8136
